<svg width="129" height="128" viewBox="0 0 129 128" fill="none" xmlns="http://www.w3.org/2000/svg">
<path d="M114.548 117.12H16.4997C16.3589 117.12 16.2437 117.005 16.2437 116.864C16.2437 116.724 16.3589 116.608 16.4997 116.608H114.548C114.688 116.608 114.804 116.724 114.804 116.864C114.804 117.005 114.688 117.12 114.548 117.12Z" fill="black"/>
<path d="M20.9798 121.216H6.38784C6.24704 121.216 6.13184 121.101 6.13184 120.96C6.13184 120.819 6.24704 120.704 6.38784 120.704H20.9798C21.1206 120.704 21.2358 120.819 21.2358 120.96C21.2358 121.101 21.1206 121.216 20.9798 121.216Z" fill="black"/>
<path d="M123.636 121.216H105.076C104.935 121.216 104.82 121.101 104.82 120.96C104.82 120.819 104.935 120.704 105.076 120.704H123.636C123.777 120.704 123.892 120.819 123.892 120.96C123.892 121.101 123.777 121.216 123.636 121.216Z" fill="black"/>
<path d="M97.7802 116.992H35.0602C32.1546 101.773 31.6938 87.373 35.0602 74.2402H97.7802C101.812 86.5282 101.812 100.775 97.7802 116.992Z" fill="#D9CFFF"/>
<path d="M97.9339 117.184H34.9067L34.8811 117.03C31.7323 100.505 31.7323 86.5022 34.8811 74.1886L34.9195 74.0479H97.9339L97.9723 74.1759C99.9819 80.3071 101.006 87.0271 101.006 94.1439C101.006 101.261 99.9819 108.953 97.9723 117.043L97.9339 117.184ZM35.2139 116.8H97.6267C101.582 100.813 101.582 86.5663 97.6395 74.4319H35.2139C32.1163 86.6047 32.1163 100.467 35.2139 116.8Z" fill="#1D1E1B"/>
<path d="M18.6123 63.9362C18.6123 63.9362 30.9131 67.3922 35.0859 73.7922L42.9963 70.9762C42.9963 70.9762 41.6011 64.9602 30.7979 59.2002L18.6123 63.9362Z" fill="#D9CFFF"/>
<path d="M35.009 74.0224L34.9322 73.8944C30.849 67.6224 18.689 64.1536 18.5738 64.1152L18.0234 63.9616L30.8362 58.9824L30.913 59.0208C36.5194 62.016 39.5658 65.0752 41.1274 67.1232C42.8298 69.3504 43.1882 70.8608 43.2138 70.9248L43.2522 71.0912L35.009 74.0224ZM19.201 63.9104C21.6074 64.6656 31.4378 68.0192 35.1626 73.5616L42.7658 70.8608C42.4458 69.8624 40.3338 64.5248 30.7978 59.4176L19.201 63.9104Z" fill="#1D1E1B"/>
<path d="M114.292 63.9362C114.292 63.9362 101.991 67.3922 97.8186 73.7922L89.9082 70.9762C89.9082 70.9762 91.3034 64.9602 102.107 59.2002L114.292 63.9362Z" fill="#D9CFFF"/>
<path d="M97.8953 74.0223L89.6777 71.1039L89.7161 70.9375C89.7289 70.8735 90.0873 69.3631 91.8025 67.1359C93.3641 65.0879 96.3977 62.0287 102.017 59.0335L102.094 58.9951L114.907 63.9743L114.356 64.1279C114.228 64.1663 102.081 67.6351 97.9977 73.9071L97.8953 74.0223ZM90.1385 70.8607L97.7417 73.5615C101.467 68.0191 111.297 64.6655 113.703 63.9103L102.119 59.4047C92.5833 64.5119 90.4585 69.8623 90.1385 70.8607Z" fill="#1D1E1B"/>
<path d="M35.124 73.7924L43.06 71.2324H89.908L97.844 73.7924H35.124Z" fill="#59298F"/>
<path d="M59.0603 98.9439C59.8026 98.9439 60.4043 98.3421 60.4043 97.5999C60.4043 96.8576 59.8026 96.2559 59.0603 96.2559C58.318 96.2559 57.7163 96.8576 57.7163 97.5999C57.7163 98.3421 58.318 98.9439 59.0603 98.9439Z" fill="#59298F"/>
<path d="M66.1003 98.9439C66.8426 98.9439 67.4443 98.3421 67.4443 97.5999C67.4443 96.8576 66.8426 96.2559 66.1003 96.2559C65.3581 96.2559 64.7563 96.8576 64.7563 97.5999C64.7563 98.3421 65.3581 98.9439 66.1003 98.9439Z" fill="#59298F"/>
<path d="M73.0125 98.9439C73.7547 98.9439 74.3565 98.3421 74.3565 97.5999C74.3565 96.8576 73.7547 96.2559 73.0125 96.2559C72.2702 96.2559 71.6685 96.8576 71.6685 97.5999C71.6685 98.3421 72.2702 98.9439 73.0125 98.9439Z" fill="#59298F"/>
<path d="M94.1322 113.92C93.7482 113.92 93.4282 113.6 93.4282 113.216C93.4282 113.139 93.441 113.062 93.4666 112.998C97.1914 101.824 96.9994 92.8638 96.1802 87.3214C95.297 81.3566 93.5306 78.003 93.5178 77.9646C93.3386 77.619 93.4794 77.1966 93.825 77.0174C94.1578 76.851 94.5674 76.979 94.7594 77.299C94.8362 77.4398 96.6538 80.9086 97.5754 87.1166C98.4202 92.8126 98.625 102.003 94.8106 113.446C94.7082 113.728 94.4394 113.92 94.1322 113.92Z" fill="white"/>
<path d="M37.8121 115.2C37.5561 115.2 37.3129 115.059 37.1977 114.841C33.5625 108.211 34.3817 91.2511 34.4201 90.5343C34.4457 90.1503 34.7657 89.8431 35.1625 89.8687C35.5465 89.8943 35.8537 90.2143 35.8281 90.6111C35.8153 90.7775 34.9833 107.891 38.4265 114.176C38.6185 114.521 38.4905 114.944 38.1449 115.136C38.0553 115.174 37.9273 115.2 37.8121 115.2Z" fill="white"/>
<path d="M59.457 32.3329C59.457 32.3329 55.3226 34.3937 54.4778 31.1041C53.633 27.8145 51.905 20.7361 46.7722 21.5809C41.6394 22.4257 41.0634 23.3601 39.2586 20.1729C37.4538 16.9857 24.4362 17.3825 26.8426 27.3665C30.785 43.7377 60.1482 42.1505 60.1482 42.1505L60.8394 38.3617L59.457 32.3329Z" fill="#6C32AD"/>
<path d="M58.113 42.3811C55.3738 42.3811 50.241 42.2019 44.929 41.0755C40.3594 40.1155 36.545 38.6563 33.601 36.7363C29.9018 34.3299 27.5722 31.1939 26.6506 27.4051C26.1258 25.2163 26.2922 23.3347 27.137 21.8115C27.8538 20.5315 29.0826 19.5203 30.6698 18.8931C33.9466 17.6003 38.3626 18.2019 39.4122 20.0707C40.8074 22.5411 41.3322 22.4387 44.2762 21.8499C44.9674 21.7091 45.761 21.5555 46.721 21.3891C51.969 20.5315 53.761 27.5459 54.6186 30.9251L54.657 31.0531C54.849 31.7955 55.233 32.3075 55.7962 32.5635C57.2042 33.2163 59.3418 32.1667 59.3546 32.1539L59.5722 32.0387L61.0186 38.3363L61.0058 38.3747L60.289 42.3171L60.1354 42.3299C60.1354 42.3427 59.3802 42.3811 58.113 42.3811ZM34.4586 18.5859C33.217 18.5859 31.9882 18.8035 30.8234 19.2515C28.865 20.0195 25.7802 22.0931 27.0346 27.3155C29.0442 35.6739 37.9146 39.2067 45.0058 40.7043C52.097 42.2019 58.8938 42.0099 59.9818 41.9715L60.6346 38.3747L59.3162 32.6147C58.7018 32.8835 56.961 33.5235 55.6426 32.9219C54.9642 32.6147 54.5034 32.0131 54.2858 31.1555L54.2474 31.0275C53.4154 27.7635 51.6874 20.9667 46.785 21.7731C45.825 21.9267 45.0442 22.0931 44.353 22.2339C41.409 22.8227 40.6154 22.9891 39.0794 20.2755C38.529 19.2643 36.6346 18.5859 34.4586 18.5859Z" fill="black"/>
<path d="M44.0715 74.1118C44.0715 74.1118 40.9483 52.2878 50.9323 45.6958C53.9787 43.6734 58.9963 49.331 64.7563 49.5358C71.3227 49.7662 77.6971 43.9038 81.2683 45.5678C95.4123 52.1726 87.8731 74.1118 87.8731 74.1118H44.0715Z" fill="#FFAD00"/>
<path d="M88.0522 74.3678H43.8538L43.8282 74.1502C43.3418 70.2462 43.2394 66.291 43.5082 62.3614C43.777 58.6878 44.417 55.4878 45.4154 52.8382C46.6698 49.4974 48.4746 47.027 50.8042 45.491C52.5578 44.339 54.8234 45.4782 57.4346 46.8094C59.649 47.9358 62.145 49.203 64.7818 49.2926C67.969 49.4078 71.1434 48.0382 73.9466 46.835C76.9162 45.555 79.4762 44.4542 81.3962 45.3502C84.6858 46.8862 87.0794 49.3694 88.5258 52.723C89.6778 55.3982 90.2282 58.6238 90.1514 62.3358C90.0362 68.6078 88.1546 74.1502 88.1418 74.2142L88.0522 74.3678ZM44.3018 73.8558H87.6938C88.0138 72.8702 89.5242 67.8782 89.6266 62.2974C89.7802 54.0414 86.9258 48.4862 81.1658 45.7982C79.4634 45.0046 76.993 46.067 74.1386 47.2958C71.2842 48.5246 68.0458 49.907 64.7562 49.7918C62.0042 49.6894 59.457 48.3966 57.2042 47.2574C54.7338 46.003 52.5962 44.915 51.0858 45.9134C46.017 49.267 44.4426 56.7294 44.033 62.387C43.7514 66.2142 43.8538 70.0542 44.3018 73.8558Z" fill="#1D1D1B"/>
<path d="M61.6201 48.9349C61.6201 48.9349 58.9321 49.5877 60.8521 51.6357C62.7721 53.6837 65.4601 51.8917 65.4601 51.8917C65.4601 51.8917 68.4041 53.5557 70.4521 51.8917C72.5001 50.2277 69.9401 48.6533 69.9401 48.6533C69.9401 48.6533 67.7641 50.3301 61.6201 48.9349Z" fill="white"/>
<path d="M68.2377 52.8386C66.9577 52.8386 65.8057 52.301 65.4601 52.1218C64.9353 52.429 62.5033 53.6834 60.7113 51.7762C60.0841 51.1106 59.8537 50.509 60.0201 49.9714C60.2889 49.0754 61.5305 48.7682 61.5817 48.7554L61.6329 48.7426L61.6713 48.7554C67.6617 50.1122 69.8121 48.5378 69.8377 48.525L69.9401 48.4482L70.0553 48.5122C70.1065 48.5506 71.3737 49.3314 71.4505 50.445C71.4889 51.021 71.1945 51.5714 70.5929 52.0578C69.9145 52.5826 69.0825 52.8642 68.2377 52.8386ZM65.4473 51.6738L65.5497 51.7378C65.5753 51.7506 68.4041 53.3122 70.3241 51.7506C70.8361 51.341 71.0793 50.9058 71.0409 50.4578C70.9897 49.7154 70.2089 49.101 69.9273 48.8962C69.3897 49.2162 67.0345 50.3554 61.6073 49.1394C61.4025 49.2034 60.5449 49.485 60.3657 50.0866C60.2505 50.4834 60.4553 50.9698 60.9673 51.5202C62.7465 53.4274 65.2297 51.8146 65.3321 51.7506L65.4473 51.6738Z" fill="#1D1D1B"/>
<path d="M63.2202 44.2876C63.2202 44.2876 63.7322 48.2556 62.3242 50.0476C62.3242 50.0476 65.1402 52.2236 68.5962 50.0476C68.5962 50.0476 66.4202 45.5676 67.0602 44.2876C67.7002 43.0076 63.2202 44.2876 63.2202 44.2876Z" fill="#FFCDB2"/>
<path d="M65.4472 51.1996C64.2952 51.1996 63.156 50.854 62.2088 50.2012L62.0552 50.086L62.1704 49.9324C63.5144 48.23 63.028 44.3516 63.028 44.3132L63.0024 44.1468L63.156 44.0956C63.9752 43.8652 66.6888 43.1484 67.2008 43.7756C67.2904 43.878 67.3672 44.07 67.2136 44.3644C66.7272 45.35 68.1608 48.7292 68.7496 49.958L68.8264 50.1116L68.6856 50.2012C67.5208 50.9564 66.4072 51.1996 65.4472 51.1996ZM62.5928 49.9964C63.2072 50.3932 65.524 51.6604 68.34 49.9708C67.9176 49.0748 66.2664 45.4268 66.8808 44.198C66.9064 44.1468 66.9448 44.0572 66.9064 44.0188C66.6632 43.7244 64.948 44.006 63.412 44.4156C63.5144 45.1836 63.7448 48.3068 62.5928 49.9964Z" fill="#1D1D1B"/>
<path d="M58.484 22.0289C58.3688 22.0289 58.2664 21.9521 58.2408 21.8369C57.3832 18.4833 60.7112 16.9217 60.7496 16.9089C60.8776 16.8449 61.0312 16.9089 61.0824 17.0369C61.1336 17.1649 61.0824 17.3185 60.9544 17.3697C60.8264 17.4209 57.9848 18.7649 58.7272 21.6961C58.7656 21.8369 58.676 21.9777 58.548 22.0033C58.5224 22.0289 58.5096 22.0289 58.484 22.0289Z" fill="#1D1D1B"/>
<path d="M64.5512 28.2372C67.3506 28.2372 69.62 25.9678 69.62 23.1684C69.62 20.369 67.3506 18.0996 64.5512 18.0996C61.7518 18.0996 59.4824 20.369 59.4824 23.1684C59.4824 25.9678 61.7518 28.2372 64.5512 28.2372Z" fill="#6C32AD"/>
<path d="M64.5511 28.416H64.4743C61.5687 28.3776 59.2519 25.984 59.3031 23.0784C59.3287 21.6832 59.8919 20.352 60.8903 19.392C62.9767 17.3696 66.3047 17.4208 68.3271 19.5072C70.3495 21.5936 70.2983 24.9216 68.2119 26.944C67.2263 27.8784 65.9207 28.416 64.5511 28.416ZM64.5511 18.2912C61.8631 18.2784 59.6615 20.4416 59.6487 23.1296C59.6359 25.8176 61.7991 28.0192 64.4871 28.032H64.5639C67.2263 28.032 69.3895 25.8944 69.4279 23.232C69.4663 20.544 67.3159 18.3296 64.6279 18.2912H64.5511Z" fill="#1D1E1B"/>
<path d="M69.5818 25.3053C67.5594 21.5933 61.8506 22.3101 60.3914 23.9101C56.769 27.8909 53.2746 25.9325 52.5834 30.2461C52.2378 32.4093 54.145 33.2669 53.2234 37.2221C52.737 39.2573 56.1674 42.4445 59.3034 42.4957C62.4394 42.5469 73.1146 42.8157 74.0106 40.5245C74.9066 38.2333 78.4266 34.4317 75.6234 30.0157C72.769 25.5357 70.4522 26.9181 69.5818 25.3053Z" fill="#6C32AD"/>
<path d="M62.401 42.7013C61.505 42.7013 60.5962 42.6885 59.7258 42.6757H59.2906C57.089 42.6373 54.9514 41.1653 53.889 39.7957C53.1594 38.8613 52.8522 37.9269 53.0314 37.1717C53.569 34.8805 53.1466 33.6645 52.7626 32.6021C52.4938 31.8469 52.2506 31.1429 52.3914 30.2213C52.7882 27.7253 54.1066 27.2261 55.7834 26.5989C57.1274 26.0997 58.6506 25.5237 60.2378 23.7829C61.1338 22.7973 63.3482 22.2341 65.3578 22.4773C67.3546 22.7205 68.9034 23.6933 69.7354 25.2165C70.0298 25.7669 70.5162 25.9205 71.1946 26.1509C72.3594 26.5349 73.9594 27.0725 75.7642 29.9013C78.0426 33.4853 76.289 36.6469 74.9962 38.9637C74.689 39.4885 74.4202 40.0261 74.177 40.5765C73.4986 42.3429 67.9562 42.7013 62.401 42.7013ZM64.3978 22.7973C62.6698 22.7973 61.1338 23.3733 60.5322 24.0389C58.881 25.8437 57.2426 26.4581 55.9242 26.9573C54.3114 27.5589 53.1338 27.9941 52.7754 30.2725C52.6474 31.1045 52.865 31.7445 53.121 32.4741C53.5178 33.5877 53.9658 34.8677 53.4026 37.2613C53.249 37.9013 53.5306 38.7205 54.1834 39.5653C55.1946 40.8581 57.217 42.2661 59.2906 42.2917H59.7258C63.0154 42.3429 73.0122 42.5093 73.8186 40.4357C74.0618 39.8597 74.3434 39.3093 74.6634 38.7717C75.905 36.5445 77.6074 33.4853 75.4442 30.1061C73.7162 27.3925 72.193 26.8933 71.0794 26.5221C70.3754 26.2917 69.7738 26.0869 69.4026 25.4085C68.6346 23.9877 67.1882 23.0917 65.3194 22.8613C65.025 22.8229 64.7178 22.7973 64.3978 22.7973Z" fill="#1D1E1B"/>
<path d="M66.2282 33.7277C63.6426 34.1245 60.2634 32.8189 59.6234 33.6893C58.9834 34.5597 59.3674 35.8141 60.7242 36.1981C62.081 36.5821 63.4634 36.6077 66.2922 36.5437C69.121 36.4797 71.8858 36.2109 71.6426 34.6877C71.3994 33.1645 70.0426 33.1389 66.2282 33.7277Z" fill="#FFB49F"/>
<path d="M64.8459 26.2783C63.7835 30.2719 59.7131 32.0511 57.5115 32.2175C57.0123 33.4335 57.2299 35.0847 57.2171 36.5183C57.1403 41.7919 59.9563 45.6575 65.0251 45.3759C69.9659 45.1071 72.6027 42.3167 72.6411 36.5055C72.6411 35.1359 72.7179 33.7791 72.2955 32.5887C68.0971 32.5247 64.8459 26.2783 64.8459 26.2783Z" fill="#FFCDB2"/>
<path d="M64.5383 45.594C62.5543 45.594 60.8391 44.9412 59.5463 43.6996C57.8695 42.0868 56.9735 39.5396 57.0119 36.5188C57.0119 36.1604 57.0119 35.7892 56.9991 35.418C56.9735 34.2788 56.9351 33.0884 57.3319 32.1412L57.3831 32.026L57.4983 32.0132C59.8791 31.834 63.6807 29.914 64.6663 26.2148L64.7943 25.7412L65.0247 26.1764C65.0631 26.2404 68.2759 32.3204 72.3079 32.3972H72.4359L72.4743 32.5252C72.8583 33.6004 72.8455 34.8292 72.8327 36.0196C72.8327 36.186 72.8327 36.3396 72.8327 36.506C72.8199 39.4116 72.1415 41.6388 70.8231 43.1492C69.5303 44.6212 67.5847 45.4276 65.0375 45.5684C64.8711 45.5812 64.7047 45.594 64.5383 45.594ZM57.6519 32.3972C57.3319 33.2548 57.3703 34.3428 57.3959 35.4052C57.4087 35.7764 57.4215 36.1604 57.4087 36.5188C57.3703 39.4372 58.2279 41.882 59.8151 43.418C61.1335 44.6852 62.9255 45.2996 65.0119 45.1844C69.9783 44.9156 72.4103 42.0868 72.4359 36.506C72.4359 36.3396 72.4359 36.1732 72.4359 36.0068C72.4487 34.8548 72.4615 33.754 72.1415 32.7684C68.5319 32.5892 65.6903 28.1476 64.8839 26.7524C63.6679 30.49 59.9047 32.1796 57.6519 32.3972Z" fill="#1D1D1B"/>
<path d="M65.7035 34.0354C62.6187 34.5474 58.5739 33.0114 57.8187 34.0738C57.0635 35.1362 57.5243 36.621 59.1627 37.0562C60.8011 37.4914 62.4395 37.517 65.8059 37.4146C69.1723 37.3122 72.4619 36.9538 72.1675 35.1362C71.8731 33.3186 70.2347 33.2802 65.7035 34.0354Z" fill="#FFB49F"/>
<path d="M64.7306 38.7197C64.6282 38.7197 64.5386 38.6301 64.5386 38.5277L64.6026 34.3805C64.6026 34.2781 64.6922 34.1885 64.7946 34.1885C64.897 34.1885 64.9866 34.2781 64.9866 34.3805L64.9226 38.5277C64.9098 38.6429 64.833 38.7197 64.7306 38.7197Z" fill="black"/>
<path d="M61.0827 21.7725C61.0315 21.7725 60.9931 21.7597 60.9547 21.7469C60.8011 21.6701 60.7243 21.4781 60.8011 21.3245C60.8395 21.2349 61.8891 19.0205 64.7691 18.8797C64.9483 18.8669 65.1019 19.0077 65.1019 19.1869C65.1019 19.3661 64.9739 19.5197 64.7947 19.5197C62.3243 19.6477 61.4155 21.5165 61.3771 21.6061C61.3259 21.6957 61.2107 21.7725 61.0827 21.7725Z" fill="white"/>
<path d="M60.1863 33.7149C59.7383 33.7149 59.3031 33.6125 58.9063 33.4077C58.8167 33.3565 58.7783 33.2413 58.8423 33.1389C58.8935 33.0493 58.9959 33.0237 59.0855 33.0621C60.7239 33.9325 62.6311 32.3837 62.6567 32.3709C62.7335 32.2941 62.8615 32.3069 62.9255 32.3837C63.0023 32.4605 62.9895 32.5885 62.9127 32.6525L62.8999 32.6653C62.8231 32.7165 61.5943 33.7149 60.1863 33.7149Z" fill="black"/>
<path d="M68.2633 33.2163C67.5849 33.2163 66.4713 32.9987 65.5753 31.7699C65.5113 31.6803 65.5369 31.5651 65.6137 31.5011C65.7033 31.4371 65.8185 31.4627 65.8825 31.5395C67.0985 33.2163 68.6985 32.7939 68.7753 32.7683C68.8777 32.7427 68.9801 32.7939 69.0057 32.8963C69.0313 32.9987 68.9801 33.1011 68.8777 33.1395C68.6857 33.2035 68.4681 33.2291 68.2633 33.2163Z" fill="black"/>
<path d="M37.6839 69.6965C34.3047 66.8549 29.6839 61.5557 28.8903 58.3685C28.0967 55.1813 30.1447 54.0677 30.1447 54.0677L29.0695 51.8277L35.9047 46.5029L36.9415 47.8213C36.9415 47.8213 40.1799 46.8357 41.7543 49.4213C43.3287 52.0069 45.0439 55.5269 46.1703 56.8965C50.3559 62.0037 50.4839 68.4037 47.9239 72.1157C45.3639 75.8277 39.4247 71.1557 37.6839 69.6965Z" fill="#FFAD00"/>
<path d="M45.2362 73.7149C42.5866 73.7149 39.3354 71.3213 37.569 69.8365C34.5098 67.2509 29.569 61.8365 28.7114 58.4189C28.0202 55.6541 29.4282 54.3485 29.9018 54.0029L28.9034 51.9165C28.865 51.8397 28.8906 51.7373 28.9546 51.6861L35.7898 46.3613C35.8794 46.2973 35.9946 46.3101 36.0586 46.3997L37.0186 47.6157C37.6586 47.4621 40.4618 46.9501 41.921 49.3437C42.5354 50.3549 43.1626 51.4941 43.777 52.5949C44.737 54.3357 45.6458 55.9741 46.3242 56.8061C50.753 62.2077 50.5738 68.6589 48.0906 72.2557C47.5658 73.0493 46.721 73.5869 45.7738 73.7021C45.5946 73.7021 45.4154 73.7149 45.2362 73.7149ZM29.313 51.8781L30.3242 53.9773C30.3754 54.0669 30.337 54.1821 30.2474 54.2333C30.1706 54.2717 28.3402 55.3341 29.0826 58.3293C29.889 61.5293 34.6762 66.9053 37.825 69.5549C39.553 71.0141 42.7146 73.3437 45.2362 73.3437C45.4026 73.3437 45.569 73.3309 45.7354 73.3053C46.5674 73.2029 47.3226 72.7293 47.7834 72.0253C50.177 68.5565 50.3434 62.2973 46.0298 57.0365C45.3258 56.1789 44.4042 54.5277 43.4442 52.7613C42.8298 51.6605 42.2154 50.5213 41.601 49.5229C40.1162 47.0909 37.1338 47.9613 37.0058 47.9997C36.929 48.0253 36.8522 47.9997 36.801 47.9357L35.8794 46.7709L29.313 51.8781Z" fill="#1D1D1B"/>
<path d="M30.3626 54.1186C30.3626 54.1186 35.777 53.0562 36.8394 47.9874L35.8538 46.6562L29.313 51.8659L30.3626 54.1186Z" fill="#E89D00"/>
<path d="M46.3243 63.6799C46.7273 63.6799 47.0539 63.3532 47.0539 62.9503C47.0539 62.5474 46.7273 62.2207 46.3243 62.2207C45.9214 62.2207 45.5947 62.5474 45.5947 62.9503C45.5947 63.3532 45.9214 63.6799 46.3243 63.6799Z" fill="#FFC140"/>
<path d="M52.5963 53.0559C52.9992 53.0559 53.3259 52.7292 53.3259 52.3263C53.3259 51.9233 52.9992 51.5967 52.5963 51.5967C52.1934 51.5967 51.8667 51.9233 51.8667 52.3263C51.8667 52.7292 52.1934 53.0559 52.5963 53.0559Z" fill="#FFC140"/>
<path d="M66.1642 60.2238C66.5671 60.2238 66.8938 59.8972 66.8938 59.4942C66.8938 59.0913 66.5671 58.7646 66.1642 58.7646C65.7612 58.7646 65.4346 59.0913 65.4346 59.4942C65.4346 59.8972 65.7612 60.2238 66.1642 60.2238Z" fill="#FFC140"/>
<path d="M76.4039 53.0559C76.8069 53.0559 77.1335 52.7292 77.1335 52.3263C77.1335 51.9233 76.8069 51.5967 76.4039 51.5967C76.001 51.5967 75.6743 51.9233 75.6743 52.3263C75.6743 52.7292 76.001 53.0559 76.4039 53.0559Z" fill="#FFC140"/>
<path d="M76.4039 69.3117C76.8069 69.3117 77.1335 68.9851 77.1335 68.5821C77.1335 68.1792 76.8069 67.8525 76.4039 67.8525C76.001 67.8525 75.6743 68.1792 75.6743 68.5821C75.6743 68.9851 76.001 69.3117 76.4039 69.3117Z" fill="#FFC140"/>
<path d="M59.5079 73.2805C59.9109 73.2805 60.2375 72.9538 60.2375 72.5509C60.2375 72.1479 59.9109 71.8213 59.5079 71.8213C59.105 71.8213 58.7783 72.1479 58.7783 72.5509C58.7783 72.9538 59.105 73.2805 59.5079 73.2805Z" fill="#FFC140"/>
<path d="M58.2281 62.6565C58.6311 62.6565 58.9577 62.3298 58.9577 61.9269C58.9577 61.5239 58.6311 61.1973 58.2281 61.1973C57.8252 61.1973 57.4985 61.5239 57.4985 61.9269C57.4985 62.3298 57.8252 62.6565 58.2281 62.6565Z" fill="#FFC140"/>
<path d="M75.38 62.3996C75.7829 62.3996 76.1096 62.073 76.1096 61.67C76.1096 61.2671 75.7829 60.9404 75.38 60.9404C74.977 60.9404 74.6504 61.2671 74.6504 61.67C74.6504 62.073 74.977 62.3996 75.38 62.3996Z" fill="#FFC140"/>
<path d="M38.9 65.5998C39.303 65.5998 39.6296 65.2732 39.6296 64.8702C39.6296 64.4673 39.303 64.1406 38.9 64.1406C38.4971 64.1406 38.1704 64.4673 38.1704 64.8702C38.1704 65.2732 38.4971 65.5998 38.9 65.5998Z" fill="#FFC140"/>
<path d="M39.3863 55.1682C39.7893 55.1682 40.1159 54.8415 40.1159 54.4386C40.1159 54.0356 39.7893 53.709 39.3863 53.709C38.9834 53.709 38.6567 54.0356 38.6567 54.4386C38.6567 54.8415 38.9834 55.1682 39.3863 55.1682Z" fill="#FFC140"/>
<path d="M18.3049 43.9042C18.3049 43.9042 18.0233 51.085 28.7881 50.9186C28.7881 50.9186 34.6121 50.573 36.2761 47.2194L36.0329 46.541C36.0329 46.541 38.9513 42.8802 37.3513 40.5762C37.3513 40.5762 34.3177 40.6274 32.3593 44.8386C32.3593 44.8386 29.0185 40.7298 24.0521 42.5474C24.0521 42.5474 21.5945 42.0738 21.1849 43.4434C21.1849 43.4562 19.8025 42.5986 18.3049 43.9042Z" fill="#FFCDB2"/>
<path d="M19.2521 43.3285C19.8793 43.0853 20.5961 43.1365 21.1849 43.4565C21.3129 43.0341 21.6329 42.7909 22.0169 42.6501C22.8745 42.3301 24.0521 42.5605 24.0521 42.5605C29.0185 40.7429 32.3593 44.8517 32.3593 44.8517C33.5753 42.2277 35.2009 41.2165 36.2633 40.8325C36.6089 40.6917 36.9673 40.6149 37.3385 40.5893C38.9385 42.8933 36.0201 46.5541 36.0201 46.5541L36.2633 47.2325C35.5465 48.6917 34.0361 49.5749 32.5641 50.1125C31.3481 50.5477 30.0681 50.8293 28.7753 50.9317C18.0105 51.1109 18.2921 43.9173 18.2921 43.9173C18.5865 43.6613 18.9065 43.4693 19.2521 43.3285ZM19.1241 42.9701C18.7273 43.1237 18.3689 43.3413 18.0489 43.6229C17.9721 43.6869 17.9209 43.7893 17.9209 43.8917C17.9465 45.6197 18.6377 47.2837 19.8537 48.5125C21.7353 50.4325 24.7305 51.3669 28.7753 51.3029H28.7881C30.1193 51.2005 31.4377 50.9189 32.6921 50.4581C34.6249 49.7541 35.9433 48.7173 36.6089 47.3861C36.6601 47.2965 36.6601 47.1813 36.6217 47.0789L36.4553 46.6053C37.0441 45.8117 39.2073 42.5861 37.6585 40.3461C37.5817 40.2437 37.4665 40.1797 37.3385 40.1797C36.9289 40.2053 36.5193 40.2949 36.1353 40.4485C35.0217 40.8581 33.4729 41.8309 32.2569 44.1605C31.6553 43.5717 30.9897 43.0725 30.2601 42.6629C28.3529 41.5877 26.0745 41.3957 24.0265 42.1381C23.6937 42.0869 22.6953 41.9717 21.8889 42.2661C21.5305 42.3813 21.2233 42.6245 21.0057 42.9317C20.3913 42.7397 19.7257 42.7525 19.1241 42.9701Z" fill="black"/>
<path d="M32.5385 47.4239C32.4233 47.4495 32.3209 47.3983 32.2825 47.2959C32.2697 47.2703 32.1161 46.7967 31.4633 46.5023C30.7465 46.1823 29.3513 46.0671 26.7145 47.2703C26.6505 47.2959 26.5737 47.2959 26.5097 47.2447C26.4841 47.2191 23.4889 44.8383 21.0953 43.6223C21.0057 43.5711 20.9673 43.4559 21.0185 43.3663C21.0697 43.2767 21.1721 43.2383 21.2745 43.2895C23.4633 44.4031 26.1257 46.4639 26.6633 46.8735C28.8393 45.9007 30.5161 45.6575 31.6425 46.1695C32.4489 46.5407 32.6537 47.1679 32.6665 47.1935C32.6921 47.2831 32.6409 47.3983 32.5385 47.4239Z" fill="black"/>
<path d="M28.9031 45.4015C28.8263 45.4271 28.7495 45.4015 28.6983 45.3503C28.6855 45.3375 27.1495 43.6607 23.9495 42.6111C23.8471 42.5727 23.7959 42.4703 23.8215 42.3679C23.8471 42.2655 23.9623 42.2143 24.0647 42.2399C27.3671 43.3279 28.9159 45.0175 28.9799 45.0943C29.0567 45.1711 29.0439 45.2991 28.9671 45.3631C28.9543 45.3887 28.9287 45.4015 28.9031 45.4015Z" fill="black"/>
<path d="M28.2634 50.1244L28.225 50.1372C24.1418 50.854 20.7498 47.8844 20.609 47.7564C20.5066 47.6668 20.4938 47.5004 20.5834 47.398C20.673 47.2956 20.8394 47.2828 20.9418 47.3724C20.9802 47.398 24.2954 50.3036 28.1226 49.6252C28.2634 49.5996 28.3914 49.6764 28.4298 49.8172C28.4554 49.958 28.3786 50.0988 28.2634 50.1244Z" fill="white"/>
<path d="M94.1319 68.4158C97.5111 65.5742 101.3 59.251 102.094 56.0638C102.887 52.8766 100.839 51.763 100.839 51.763L101.914 49.523L95.0919 44.1982L94.0551 45.5166C94.0551 45.5166 90.8167 44.531 89.2423 47.1166C87.6679 49.7022 85.9527 53.2222 84.8263 54.5918C80.6279 59.699 82.0999 69.043 84.6599 72.755C87.2199 76.467 92.3911 69.875 94.1319 68.4158Z" fill="#FFAD00"/>
<path d="M86.6059 74.0739C86.5291 74.0739 86.4523 74.0739 86.3755 74.0611C85.6331 73.9971 84.9931 73.5875 84.4939 72.8707C83.1243 70.8739 82.1643 67.5587 82.0107 64.2179C81.8187 60.2499 82.7659 56.7939 84.6603 54.4899C85.3387 53.6579 86.2475 52.0195 87.2075 50.2787C87.8219 49.1779 88.4491 48.0387 89.0635 47.0275C90.5227 44.6339 93.3259 45.1587 93.9659 45.2995L94.9259 44.0835C94.9899 44.0067 95.1051 43.9811 95.1947 44.0451L102.017 49.3699C102.094 49.4211 102.107 49.5235 102.068 49.6003L101.07 51.6867C101.556 52.0451 102.964 53.3507 102.26 56.1027C101.441 59.3539 97.5755 65.7283 94.2347 68.5443L94.1067 68.3907L94.2347 68.5443C93.9275 68.8003 93.5179 69.2227 93.0315 69.7091C91.3291 71.4755 88.7563 74.0739 86.6059 74.0739ZM92.6219 45.5171C91.6107 45.5171 90.2539 45.8243 89.4091 47.2195C88.7947 48.2179 88.1675 49.3571 87.5659 50.4579C86.5931 52.2115 85.6843 53.8627 84.9803 54.7331C83.1371 56.9731 82.2283 60.3395 82.4075 64.2051C82.5611 67.4307 83.5083 70.7587 84.8267 72.6659C85.2619 73.3059 85.7867 73.6387 86.4267 73.6899C86.4907 73.6899 86.5547 73.7027 86.6187 73.7027C88.6027 73.7027 91.1115 71.1683 92.7883 69.4659C93.2747 68.9667 93.7099 68.5443 94.0171 68.2755C97.3195 65.4979 101.121 59.2259 101.928 56.0259C102.683 53.0435 100.84 51.9811 100.763 51.9299C100.673 51.8787 100.635 51.7635 100.686 51.6739L101.697 49.5747L95.1435 44.4675L94.2219 45.6451C94.1707 45.7091 94.0939 45.7347 94.0171 45.7091C93.5435 45.5811 93.0827 45.5171 92.6219 45.5171Z" fill="#1D1D1B"/>
<path d="M100.622 51.8149C100.622 51.8149 95.2074 50.7525 94.145 45.6837L95.1306 44.3525L101.684 49.5621L100.622 51.8149Z" fill="#E89D00"/>
<path d="M84.6603 61.3762C85.0632 61.3762 85.3899 61.0495 85.3899 60.6466C85.3899 60.2436 85.0632 59.917 84.6603 59.917C84.2573 59.917 83.9307 60.2436 83.9307 60.6466C83.9307 61.0495 84.2573 61.3762 84.6603 61.3762Z" fill="#FFC140"/>
<path d="M92.0841 63.2961C92.487 63.2961 92.8137 62.9695 92.8137 62.5665C92.8137 62.1636 92.487 61.8369 92.0841 61.8369C91.6811 61.8369 91.3545 62.1636 91.3545 62.5665C91.3545 62.9695 91.6811 63.2961 92.0841 63.2961Z" fill="#FFC140"/>
<path d="M91.5978 52.8645C92.0007 52.8645 92.3274 52.5378 92.3274 52.1349C92.3274 51.7319 92.0007 51.4053 91.5978 51.4053C91.1948 51.4053 90.8682 51.7319 90.8682 52.1349C90.8682 52.5378 91.1948 52.8645 91.5978 52.8645Z" fill="#FFC140"/>
<path d="M113.23 41.2547C113.23 41.2547 113.511 48.4355 102.747 48.2691C102.747 48.2691 96.9226 47.9235 95.2586 44.5699L95.5018 43.9043C95.5018 43.9043 92.5834 40.2435 94.1834 37.9395C94.1834 37.9395 97.217 37.9907 99.1754 42.2019C99.1754 42.2019 102.503 38.0931 107.483 39.9107C107.483 39.9107 109.94 39.4371 110.35 40.8067C110.35 40.8067 111.732 39.9363 113.23 41.2547Z" fill="#FFCDB2"/>
<path d="M112.283 40.679C112.628 40.807 112.948 41.0118 113.23 41.255C113.23 41.255 113.511 48.4358 102.747 48.2694C101.454 48.167 100.174 47.8854 98.9578 47.4502C97.4858 46.9126 95.9754 46.0294 95.2586 44.5702L95.5018 43.9046C95.5018 43.9046 92.5834 40.2438 94.1834 37.9398C94.5546 37.9654 94.913 38.0422 95.2586 38.183C96.321 38.567 97.9466 39.5782 99.1626 42.2022C99.1626 42.2022 102.491 38.0934 107.47 39.911C107.47 39.911 108.647 39.6806 109.505 40.0006C109.889 40.1414 110.209 40.3846 110.337 40.807C110.939 40.487 111.643 40.4358 112.283 40.679ZM112.411 40.3078C111.809 40.0774 111.143 40.0774 110.529 40.295C110.311 39.9878 110.004 39.7446 109.646 39.6294C108.839 39.335 107.841 39.4502 107.508 39.5014C105.447 38.759 103.169 38.9382 101.275 40.0262C100.545 40.4358 99.8666 40.935 99.265 41.5238C98.049 39.1942 96.5002 38.2214 95.3866 37.8118C95.0026 37.6582 94.593 37.5686 94.1834 37.543C94.0554 37.543 93.9402 37.607 93.8634 37.7094C92.3018 39.9494 94.4778 43.175 95.0666 43.9686L94.8874 44.4422C94.849 44.5446 94.8618 44.647 94.9002 44.7494C95.5658 46.0806 96.8714 47.1174 98.8042 47.8214C100.059 48.2694 101.377 48.551 102.708 48.6534H102.721C106.766 48.7174 109.761 47.783 111.643 45.8502C112.859 44.6214 113.563 42.9702 113.601 41.2422C113.601 41.1398 113.55 41.0374 113.473 40.9734C113.166 40.6918 112.807 40.4614 112.411 40.3078Z" fill="black"/>
<path d="M98.9959 44.7618C99.1111 44.7874 99.2135 44.7362 99.2519 44.6338C99.2647 44.6082 99.4183 44.1346 100.071 43.8402C100.788 43.5202 102.183 43.405 104.82 44.6082C104.884 44.6338 104.961 44.6338 105.025 44.5826C105.05 44.557 108.045 42.1762 110.439 40.9602C110.529 40.909 110.567 40.7938 110.516 40.7042C110.465 40.6146 110.362 40.5762 110.26 40.6274C108.071 41.741 105.396 43.8018 104.871 44.2114C102.695 43.2386 101.018 42.9954 99.8919 43.5074C99.0855 43.8786 98.8807 44.5058 98.8679 44.5314C98.8423 44.6338 98.8935 44.7362 98.9959 44.7618Z" fill="black"/>
<path d="M102.631 42.7522C102.708 42.7778 102.785 42.7522 102.836 42.701C102.849 42.6882 104.398 41.0114 107.585 39.9618C107.687 39.9362 107.751 39.8338 107.726 39.7314C107.7 39.629 107.598 39.565 107.495 39.5906C107.483 39.5906 107.47 39.5906 107.47 39.6034C104.167 40.6914 102.619 42.381 102.555 42.4578C102.478 42.5346 102.491 42.6626 102.567 42.7266C102.58 42.7266 102.606 42.7394 102.631 42.7522Z" fill="black"/>
<path d="M103.272 47.475C103.284 47.475 103.297 47.4878 103.31 47.4878C107.393 48.2046 110.785 45.235 110.926 45.107C111.028 45.0174 111.041 44.851 110.952 44.7486C110.862 44.6462 110.696 44.6334 110.593 44.723C110.555 44.7486 107.24 47.6542 103.412 46.9758C103.272 46.9502 103.144 47.0398 103.118 47.1806C103.092 47.3086 103.156 47.4366 103.272 47.475Z" fill="white"/>
<path d="M63.9242 42.8796H63.8986C63.7962 42.8668 63.7194 42.7772 63.7322 42.662C63.7834 42.1884 63.7066 41.8556 63.4762 41.6892C63.0154 41.3564 62.0298 41.6764 61.697 41.83C61.5946 41.8684 61.4922 41.83 61.441 41.7276C61.3898 41.6252 61.441 41.5228 61.5434 41.4716C61.6074 41.446 62.977 40.8316 63.7066 41.3692C64.0522 41.6252 64.193 42.0604 64.1162 42.6876C64.1034 42.8028 64.0266 42.8796 63.9242 42.8796Z" fill="black"/>
<path d="M60.8523 36.8004C61.1351 36.8004 61.3643 36.5711 61.3643 36.2884C61.3643 36.0056 61.1351 35.7764 60.8523 35.7764C60.5696 35.7764 60.3403 36.0056 60.3403 36.2884C60.3403 36.5711 60.5696 36.8004 60.8523 36.8004Z" fill="black"/>
<path d="M68.9803 36.8638C69.263 36.8638 69.4923 36.6346 69.4923 36.3518C69.4923 36.0691 69.263 35.8398 68.9803 35.8398C68.6975 35.8398 68.4683 36.0691 68.4683 36.3518C68.4683 36.6346 68.6975 36.8638 68.9803 36.8638Z" fill="black"/>
<path d="M36.0457 30.7842C36.0201 30.7842 35.9817 30.7842 35.9561 30.7714C32.6409 29.4914 29.6713 27.2642 27.1113 24.1538C25.0761 21.6706 23.2841 18.6242 21.8121 15.0786C20.2889 11.405 19.1881 7.55215 18.5481 3.62255C18.5353 3.48175 18.6249 3.35375 18.7657 3.32815C18.9065 3.30255 19.0345 3.40495 19.0601 3.54575C19.0729 3.59695 19.8153 8.94735 22.2857 14.8994C24.5641 20.365 28.8137 27.4818 36.1353 30.2978C36.2633 30.349 36.3401 30.4898 36.2889 30.6306C36.2505 30.7202 36.1481 30.797 36.0457 30.7842Z" fill="black"/>
<path d="M29.543 30.4509H29.5174C26.3046 30.1053 23.1942 28.1597 20.519 24.8189C19.303 23.2829 18.2662 21.6189 17.4342 19.8397C17.383 19.7117 17.4342 19.5581 17.5622 19.5069C17.6902 19.4557 17.8438 19.5069 17.895 19.6349C17.9334 19.7373 22.119 29.1453 29.5686 29.9389C29.7094 29.9517 29.8246 30.0669 29.8118 30.2077C29.799 30.3485 29.6838 30.4637 29.543 30.4509Z" fill="black"/>
<path d="M5.23598 43.5204C5.09518 43.5204 4.97998 43.4052 4.97998 43.2644C4.97998 43.2132 4.99278 43.162 5.03118 43.1108C6.92558 40.5124 10.3048 39.4628 14.8232 40.0644C16.9736 40.3716 19.0728 40.9348 21.0824 41.7412C21.2104 41.7924 21.2744 41.946 21.2104 42.074C21.1592 42.202 21.0056 42.266 20.8776 42.202C20.7624 42.1508 9.75438 37.4916 5.44078 43.3924C5.38958 43.482 5.31278 43.5204 5.23598 43.5204Z" fill="black"/>
<path d="M23.2841 38.9121C23.2073 38.9121 23.1433 38.8865 23.0921 38.8225C23.0537 38.7841 19.8793 35.3537 13.1977 36.0961C13.0569 36.1089 12.9289 36.0065 12.9161 35.8657C12.9033 35.7249 13.0057 35.5969 13.1465 35.5841C20.1097 34.8161 23.3481 38.3361 23.4761 38.4897C23.5657 38.5921 23.5657 38.7585 23.4633 38.8481C23.4121 38.8865 23.3481 38.9121 23.2841 38.9121Z" fill="black"/>
<path d="M88.116 70.5917C87.8344 70.5917 87.604 70.3613 87.604 70.0797C87.604 69.9005 87.6936 69.7469 87.8344 69.6445C100.161 61.7469 98.3944 55.3085 98.3688 55.2445C98.292 54.9757 98.4456 54.6941 98.7144 54.6045C98.9832 54.5149 99.2648 54.6813 99.3544 54.9501C99.38 55.0269 99.9048 56.8573 98.7656 59.6989C97.2808 63.4109 93.7864 67.0461 88.3976 70.5021C88.308 70.5661 88.2184 70.5917 88.116 70.5917Z" fill="white"/>
<path d="M120.82 40.3198C120.756 40.3198 120.679 40.2942 120.628 40.243C118.619 38.131 115.956 37.235 112.718 37.5806C111.22 37.747 109.761 38.1438 108.391 38.7582C108.263 38.835 108.11 38.7838 108.046 38.6686C107.969 38.5406 108.02 38.387 108.135 38.323C108.148 38.323 108.161 38.3102 108.174 38.3102C109.595 37.6702 111.105 37.2478 112.654 37.0814C116.02 36.7102 118.913 37.6958 121.012 39.8974C121.115 39.9998 121.102 40.1662 120.999 40.2558C120.935 40.2942 120.884 40.3198 120.82 40.3198Z" fill="black"/>
<path d="M102.004 37.5037C101.863 37.5037 101.748 37.3885 101.748 37.2477C101.748 37.1965 101.761 37.1453 101.799 37.1069C101.838 37.0429 102.874 35.5709 104.986 34.3421C106.932 33.2029 110.17 32.0893 114.612 33.1645C114.753 33.2029 114.83 33.3309 114.804 33.4717C114.766 33.6125 114.638 33.6893 114.497 33.6637C110.222 32.6269 107.124 33.7021 105.268 34.7773C103.258 35.9549 102.234 37.3885 102.222 37.4013C102.17 37.4653 102.094 37.5037 102.004 37.5037Z" fill="black"/>
</svg>
