<svg width="36" height="36" viewBox="0 0 36 36" fill="none" xmlns="http://www.w3.org/2000/svg">
<circle cx="18" cy="18" r="18" fill="#FFF5F8"/>
<path d="M16.5675 20.6925L17.625 21.75L21.375 18L17.625 14.25L16.5675 15.3075L18.5025 17.25H11.25V18.75H18.5025L16.5675 20.6925ZM23.25 11.25H12.75C11.9175 11.25 11.25 11.925 11.25 12.75V15.75H12.75V12.75H23.25V23.25H12.75V20.25H11.25V23.25C11.25 24.075 11.9175 24.75 12.75 24.75H23.25C24.075 24.75 24.75 24.075 24.75 23.25V12.75C24.75 11.925 24.075 11.25 23.25 11.25Z" fill="#F1416C"/>
</svg>
