<svg width="36" height="36" viewBox="0 0 36 36" fill="none" xmlns="http://www.w3.org/2000/svg">
<circle cx="18" cy="18" r="18" fill="#E8FFF3"/>
<path d="M22.5 15.375H21.75V13.875C21.75 11.805 20.07 10.125 18 10.125C15.93 10.125 14.25 11.805 14.25 13.875V15.375H13.5C12.675 15.375 12 16.05 12 16.875V24.375C12 25.2 12.675 25.875 13.5 25.875H22.5C23.325 25.875 24 25.2 24 24.375V16.875C24 16.05 23.325 15.375 22.5 15.375ZM18 22.125C17.175 22.125 16.5 21.45 16.5 20.625C16.5 19.8 17.175 19.125 18 19.125C18.825 19.125 19.5 19.8 19.5 20.625C19.5 21.45 18.825 22.125 18 22.125ZM20.325 15.375H15.675V13.875C15.675 12.5925 16.7175 11.55 18 11.55C19.2825 11.55 20.325 12.5925 20.325 13.875V15.375Z" fill="#39A388"/>
</svg>
