<svg width="200" height="200" viewBox="0 0 200 200" fill="none" xmlns="http://www.w3.org/2000/svg">
<path d="M178.2 183H25.0001C24.7801 183 24.6001 182.82 24.6001 182.6C24.6001 182.38 24.7801 182.2 25.0001 182.2H178.2C178.42 182.2 178.6 182.38 178.6 182.6C178.6 182.82 178.42 183 178.2 183Z" fill="black"/>
<path d="M32.0001 189.4H9.20005C8.98005 189.4 8.80005 189.22 8.80005 189C8.80005 188.78 8.98005 188.6 9.20005 188.6H32.0001C32.2201 188.6 32.4001 188.78 32.4001 189C32.4001 189.22 32.2201 189.4 32.0001 189.4Z" fill="black"/>
<path d="M192.4 189.4H163.4C163.18 189.4 163 189.22 163 189C163 188.78 163.18 188.6 163.4 188.6H192.4C192.62 188.6 192.8 188.78 192.8 189C192.8 189.22 192.62 189.4 192.4 189.4Z" fill="black"/>
<path d="M152 182.8H54C49.46 159.02 48.74 136.52 54 116H152C158.3 135.2 158.3 157.46 152 182.8Z" fill="#E6FCF4"/>
<path d="M152.24 183.1H53.76L53.72 182.86C48.8 157.04 48.8 135.16 53.72 115.92L53.78 115.7H152.24L152.3 115.9C155.44 125.48 157.04 135.98 157.04 147.1C157.04 158.22 155.44 170.24 152.3 182.88L152.24 183.1ZM54.24 182.5H151.76C157.94 157.52 157.94 135.26 151.78 116.3H54.24C49.4 135.32 49.4 156.98 54.24 182.5Z" fill="#1D1E1B"/>
<path d="M28.3 99.9C28.3 99.9 47.52 105.3 54.04 115.3L66.4 110.9C66.4 110.9 64.22 101.5 47.34 92.5L28.3 99.9Z" fill="#E6FCF4"/>
<path d="M53.92 115.66L53.8 115.46C47.42 105.66 28.42 100.24 28.24 100.18L27.38 99.9399L47.4 92.1599L47.52 92.2199C56.28 96.8999 61.04 101.68 63.48 104.88C66.14 108.36 66.7 110.72 66.74 110.82L66.8 111.08L53.92 115.66ZM29.22 99.8599C32.98 101.04 48.34 106.28 54.16 114.94L66.04 110.72C65.54 109.16 62.24 100.82 47.34 92.8399L29.22 99.8599Z" fill="#1D1E1B"/>
<path d="M177.8 99.9C177.8 99.9 158.58 105.3 152.06 115.3L139.7 110.9C139.7 110.9 141.88 101.5 158.76 92.5L177.8 99.9Z" fill="#E6FCF4"/>
<path d="M152.18 115.66L139.34 111.1L139.4 110.84C139.42 110.74 139.98 108.38 142.66 104.9C145.1 101.7 149.84 96.9199 158.62 92.2399L158.74 92.1799L178.76 99.9599L177.9 100.2C177.7 100.26 158.72 105.68 152.34 115.48L152.18 115.66ZM140.06 110.72L151.94 114.94C157.76 106.28 173.12 101.04 176.88 99.8599L158.78 92.8199C143.88 100.8 140.56 109.16 140.06 110.72Z" fill="#1D1E1B"/>
<path d="M54.1 115.3L66.5 111.3H139.7L152.1 115.3H54.1Z" fill="#07E092"/>
<path d="M91.5 154.6C92.6598 154.6 93.6 153.66 93.6 152.5C93.6 151.34 92.6598 150.4 91.5 150.4C90.3402 150.4 89.4 151.34 89.4 152.5C89.4 153.66 90.3402 154.6 91.5 154.6Z" fill="#07E092"/>
<path d="M102.5 154.6C103.66 154.6 104.6 153.66 104.6 152.5C104.6 151.34 103.66 150.4 102.5 150.4C101.34 150.4 100.4 151.34 100.4 152.5C100.4 153.66 101.34 154.6 102.5 154.6Z" fill="#07E092"/>
<path d="M113.3 154.6C114.46 154.6 115.4 153.66 115.4 152.5C115.4 151.34 114.46 150.4 113.3 150.4C112.14 150.4 111.2 151.34 111.2 152.5C111.2 153.66 112.14 154.6 113.3 154.6Z" fill="#07E092"/>
<path d="M146.3 178C145.7 178 145.2 177.5 145.2 176.9C145.2 176.78 145.22 176.66 145.26 176.56C151.08 159.1 150.78 145.1 149.5 136.44C148.12 127.12 145.36 121.88 145.34 121.82C145.06 121.28 145.28 120.62 145.82 120.34C146.34 120.08 146.98 120.28 147.28 120.78C147.4 121 150.24 126.42 151.68 136.12C153 145.02 153.32 159.38 147.36 177.26C147.2 177.7 146.78 178 146.3 178Z" fill="white"/>
<path d="M58.3001 180C57.9 180 57.5201 179.78 57.3401 179.44C51.66 169.08 52.94 142.58 53 141.46C53.04 140.86 53.54 140.38 54.16 140.42C54.76 140.46 55.24 140.96 55.2 141.58C55.18 141.84 53.88 168.58 59.26 178.4C59.5601 178.94 59.3601 179.6 58.8201 179.9C58.6801 179.96 58.4801 180 58.3001 180Z" fill="white"/>
<path d="M92.1199 50.52C92.1199 50.52 85.6599 53.74 84.3399 48.6C83.0199 43.46 80.3199 32.4 72.2999 33.72C64.2799 35.04 63.3799 36.5 60.5599 31.52C57.7399 26.54 37.3999 27.16 41.1599 42.76C47.3199 68.34 93.1999 65.86 93.1999 65.86L94.2799 59.94L92.1199 50.52Z" fill="#07E092"/>
<path d="M90.02 66.2202C85.74 66.2202 77.72 65.9402 69.42 64.1802C62.28 62.6802 56.32 60.4002 51.72 57.4002C45.94 53.6402 42.3 48.7402 40.86 42.8202C40.04 39.4002 40.3 36.4601 41.62 34.0801C42.74 32.0801 44.66 30.5002 47.14 29.5202C52.26 27.5002 59.16 28.4401 60.8 31.3602C62.98 35.2202 63.8 35.0601 68.4 34.1401C69.48 33.9201 70.72 33.6802 72.22 33.4202C80.42 32.0802 83.22 43.0402 84.56 48.3202L84.62 48.5202C84.92 49.6802 85.52 50.4802 86.4 50.8801C88.6 51.9002 91.94 50.2602 91.96 50.2402L92.3 50.0602L94.56 59.9002L94.54 59.9601L93.42 66.1202L93.18 66.1402C93.18 66.1602 92 66.2202 90.02 66.2202ZM53.06 29.0401C51.12 29.0401 49.2 29.3801 47.38 30.0801C44.32 31.2801 39.5 34.5201 41.46 42.6802C44.6 55.7402 58.46 61.2602 69.54 63.6002C80.62 65.9402 91.24 65.6402 92.94 65.5802L93.96 59.9601L91.9 50.9602C90.94 51.3802 88.22 52.3802 86.16 51.4402C85.1 50.9602 84.38 50.0202 84.04 48.6802L83.98 48.4802C82.68 43.3801 79.98 32.7602 72.32 34.0202C70.82 34.2602 69.6 34.5201 68.52 34.7401C63.92 35.6601 62.68 35.9201 60.28 31.6801C59.42 30.1001 56.46 29.0401 53.06 29.0401Z" fill="black"/>
<path d="M68.08 115.8C68.08 115.8 63.2 81.7 78.8 71.4C83.56 68.24 91.4 77.08 100.4 77.4C110.66 77.76 120.62 68.6 126.2 71.2C148.3 81.52 136.52 115.8 136.52 115.8H68.08Z" fill="#FFAD00"/>
<path d="M136.8 116.2H67.7399L67.6999 115.86C66.9399 109.76 66.7799 103.58 67.1999 97.4402C67.6199 91.7002 68.6199 86.7002 70.1799 82.5602C72.1399 77.3402 74.9599 73.4802 78.5999 71.0802C81.3399 69.2802 84.8799 71.0602 88.9599 73.1402C92.4199 74.9002 96.3199 76.8802 100.44 77.0202C105.42 77.2002 110.38 75.0602 114.76 73.1802C119.4 71.1802 123.4 69.4602 126.4 70.8602C131.54 73.2602 135.28 77.1402 137.54 82.3802C139.34 86.5602 140.2 91.6002 140.08 97.4002C139.9 107.2 136.96 115.86 136.94 115.96L136.8 116.2ZM68.4399 115.4H136.24C136.74 113.86 139.1 106.06 139.26 97.3402C139.5 84.4402 135.04 75.7602 126.04 71.5602C123.38 70.3202 119.52 71.9802 115.06 73.9002C110.6 75.8202 105.54 77.9802 100.4 77.8002C96.0999 77.6402 92.1199 75.6202 88.5999 73.8402C84.7399 71.8802 81.3999 70.1802 79.0399 71.7402C71.1199 76.9802 68.6599 88.6402 68.0199 97.4802C67.5799 103.46 67.7399 109.46 68.4399 115.4Z" fill="#1D1D1B"/>
<path d="M95.4999 76.46C95.4999 76.46 91.2999 77.48 94.2999 80.68C97.2999 83.88 101.5 81.08 101.5 81.08C101.5 81.08 106.1 83.68 109.3 81.08C112.5 78.48 108.5 76.02 108.5 76.02C108.5 76.02 105.1 78.64 95.4999 76.46Z" fill="white"/>
<path d="M105.84 82.5602C103.84 82.5602 102.04 81.7202 101.5 81.4402C100.68 81.9202 96.88 83.8802 94.08 80.9002C93.1 79.8602 92.74 78.9202 93 78.0802C93.42 76.6802 95.36 76.2002 95.44 76.1802L95.52 76.1602L95.58 76.1802C104.94 78.3002 108.3 75.8402 108.34 75.8202L108.5 75.7002L108.68 75.8002C108.76 75.8602 110.74 77.0802 110.86 78.8202C110.92 79.7202 110.46 80.5802 109.52 81.3402C108.46 82.1602 107.16 82.6002 105.84 82.5602ZM101.48 80.7402L101.64 80.8402C101.68 80.8602 106.1 83.3002 109.1 80.8602C109.9 80.2202 110.28 79.5402 110.22 78.8402C110.14 77.6802 108.92 76.7202 108.48 76.4002C107.64 76.9002 103.96 78.6802 95.48 76.7802C95.16 76.8802 93.82 77.3202 93.54 78.2602C93.36 78.8802 93.68 79.6402 94.48 80.5002C97.26 83.4802 101.14 80.9602 101.3 80.8602L101.48 80.7402Z" fill="#1D1D1B"/>
<path d="M98 69.2002C98 69.2002 98.8 75.4002 96.6 78.2002C96.6 78.2002 101 81.6002 106.4 78.2002C106.4 78.2002 103 71.2002 104 69.2002C105 67.2002 98 69.2002 98 69.2002Z" fill="#FFCDB2"/>
<path d="M101.48 80.0001C99.6799 80.0001 97.8999 79.4601 96.4199 78.4401L96.1799 78.2601L96.3599 78.0201C98.4599 75.3601 97.6999 69.3001 97.6999 69.2401L97.6599 68.9801L97.8999 68.9001C99.1799 68.5401 103.42 67.4201 104.22 68.4001C104.36 68.5601 104.48 68.8601 104.24 69.3201C103.48 70.8601 105.72 76.1401 106.64 78.0601L106.76 78.3001L106.54 78.4401C104.72 79.6201 102.98 80.0001 101.48 80.0001ZM97.0199 78.1201C97.9799 78.7401 101.6 80.7201 106 78.0801C105.34 76.6801 102.76 70.9801 103.72 69.0601C103.76 68.9801 103.82 68.8401 103.76 68.7801C103.38 68.3201 100.7 68.7601 98.2999 69.4001C98.4599 70.6001 98.8199 75.4801 97.0199 78.1201Z" fill="#1D1D1B"/>
<path d="M90.6 34.4201C90.42 34.4201 90.26 34.3001 90.22 34.1201C88.88 28.8801 94.08 26.4401 94.14 26.4201C94.34 26.3201 94.58 26.4201 94.66 26.6201C94.74 26.8201 94.66 27.0601 94.46 27.1401C94.26 27.2201 89.82 29.3201 90.98 33.9001C91.04 34.1201 90.9 34.3401 90.7 34.3801C90.66 34.4201 90.64 34.4201 90.6 34.4201Z" fill="#1D1D1B"/>
<path d="M100.08 44.12C104.454 44.12 108 40.5741 108 36.2C108 31.8259 104.454 28.28 100.08 28.28C95.7058 28.28 92.1599 31.8259 92.1599 36.2C92.1599 40.5741 95.7058 44.12 100.08 44.12Z" fill="#07E092"/>
<path d="M100.08 44.4002H99.96C95.42 44.3402 91.8 40.6002 91.88 36.0602C91.92 33.8802 92.8 31.8002 94.36 30.3002C97.62 27.1402 102.82 27.2202 105.98 30.4802C109.14 33.7402 109.06 38.9402 105.8 42.1002C104.26 43.5602 102.22 44.4002 100.08 44.4002ZM100.08 28.5802C95.88 28.5602 92.44 31.9402 92.42 36.1402C92.4 40.3402 95.78 43.7802 99.98 43.8002H100.1C104.26 43.8002 107.64 40.4602 107.7 36.3002C107.76 32.1002 104.4 28.6402 100.2 28.5802H100.08Z" fill="#1D1E1B"/>
<path d="M107.94 39.5401C104.78 33.7401 95.86 34.8601 93.58 37.3601C87.92 43.5801 82.46 40.5201 81.38 47.2601C80.84 50.6401 83.82 51.9801 82.38 58.1601C81.62 61.3401 86.98 66.3201 91.88 66.4001C96.78 66.4801 113.46 66.9001 114.86 63.3201C116.26 59.7401 121.76 53.8001 117.38 46.9001C112.92 39.9001 109.3 42.0601 107.94 39.5401Z" fill="#07E092"/>
<path d="M96.72 66.7201C95.32 66.7201 93.9 66.7001 92.54 66.6801H91.86C88.42 66.6201 85.08 64.3201 83.42 62.1801C82.28 60.7201 81.8 59.2601 82.08 58.0801C82.92 54.5001 82.26 52.6001 81.66 50.9401C81.24 49.7601 80.86 48.6601 81.08 47.2201C81.7 43.3201 83.76 42.5401 86.38 41.5601C88.48 40.7801 90.86 39.8801 93.34 37.1601C94.74 35.6201 98.2 34.7401 101.34 35.1201C104.46 35.5001 106.88 37.0201 108.18 39.4001C108.64 40.2601 109.4 40.5001 110.46 40.8601C112.28 41.4601 114.78 42.3001 117.6 46.7201C121.16 52.3201 118.42 57.2601 116.4 60.8801C115.92 61.7001 115.5 62.5401 115.12 63.4001C114.06 66.1601 105.4 66.7201 96.72 66.7201ZM99.84 35.6201C97.14 35.6201 94.74 36.5201 93.8 37.5601C91.22 40.3801 88.66 41.3401 86.6 42.1201C84.08 43.0601 82.24 43.7401 81.68 47.3001C81.48 48.6001 81.82 49.6001 82.22 50.7401C82.84 52.4801 83.54 54.4801 82.66 58.2201C82.42 59.2201 82.86 60.5001 83.88 61.8201C85.46 63.8401 88.62 66.0401 91.86 66.0801H92.54C97.68 66.1601 113.3 66.4201 114.56 63.1801C114.94 62.2801 115.38 61.4201 115.88 60.5801C117.82 57.1001 120.48 52.3201 117.1 47.0401C114.4 42.8001 112.02 42.0201 110.28 41.4401C109.18 41.0801 108.24 40.7601 107.66 39.7001C106.46 37.4801 104.2 36.0801 101.28 35.7201C100.82 35.6601 100.34 35.6201 99.84 35.6201Z" fill="#1D1E1B"/>
<path d="M102.7 52.7001C98.6599 53.3201 93.3799 51.2801 92.3799 52.6401C91.3799 54.0001 91.9799 55.9601 94.0999 56.5601C96.2199 57.1601 98.3799 57.2001 102.8 57.1001C107.22 57.0001 111.54 56.5801 111.16 54.2001C110.78 51.8201 108.66 51.7801 102.7 52.7001Z" fill="#FFB49F"/>
<path d="M100.54 41.0601C98.88 47.3001 92.52 50.0801 89.08 50.3401C88.3 52.2401 88.64 54.8201 88.62 57.0601C88.5 65.3001 92.9 71.3401 100.82 70.9001C108.54 70.4801 112.66 66.1201 112.72 57.0401C112.72 54.9001 112.84 52.7801 112.18 50.9201C105.62 50.8201 100.54 41.0601 100.54 41.0601Z" fill="#FFCDB2"/>
<path d="M100.06 71.24C96.9599 71.24 94.2799 70.22 92.2599 68.28C89.64 65.76 88.24 61.78 88.3 57.06C88.3 56.5 88.3 55.92 88.28 55.34C88.24 53.56 88.18 51.7 88.8 50.22L88.88 50.04L89.06 50.02C92.7799 49.74 98.7199 46.74 100.26 40.96L100.46 40.22L100.82 40.9C100.88 41 105.9 50.5 112.2 50.62H112.4L112.46 50.82C113.06 52.5 113.04 54.42 113.02 56.28C113.02 56.54 113.02 56.78 113.02 57.04C113 61.58 111.94 65.06 109.88 67.42C107.86 69.72 104.82 70.98 100.84 71.2C100.58 71.22 100.32 71.24 100.06 71.24ZM89.3 50.62C88.8 51.96 88.86 53.66 88.9 55.32C88.92 55.9 88.94 56.5 88.92 57.06C88.86 61.62 90.2 65.44 92.6799 67.84C94.7399 69.82 97.5399 70.78 100.8 70.6C108.56 70.18 112.36 65.76 112.4 57.04C112.4 56.78 112.4 56.52 112.4 56.26C112.42 54.46 112.44 52.74 111.94 51.2C106.3 50.92 101.86 43.98 100.6 41.8C98.6999 47.64 92.8199 50.28 89.3 50.62Z" fill="#1D1D1B"/>
<path d="M101.88 53.1802C97.06 53.9802 90.74 51.5802 89.56 53.2402C88.38 54.9002 89.1 57.2202 91.66 57.9002C94.22 58.5802 96.78 58.6202 102.04 58.4602C107.3 58.3002 112.44 57.7402 111.98 54.9002C111.52 52.0602 108.96 52.0002 101.88 53.1802Z" fill="#FFB49F"/>
<path d="M100.36 60.5002C100.2 60.5002 100.06 60.3602 100.06 60.2002L100.16 53.7202C100.16 53.5602 100.3 53.4202 100.46 53.4202C100.62 53.4202 100.76 53.5602 100.76 53.7202L100.66 60.2002C100.64 60.3802 100.52 60.5002 100.36 60.5002Z" fill="black"/>
<path d="M94.6599 34.02C94.5799 34.02 94.5199 34 94.4599 33.98C94.2199 33.86 94.0999 33.56 94.2199 33.32C94.2799 33.18 95.9199 29.72 100.42 29.5C100.7 29.48 100.94 29.7 100.94 29.98C100.94 30.26 100.74 30.5 100.46 30.5C96.5999 30.7 95.1799 33.62 95.1199 33.76C95.0399 33.9 94.8599 34.02 94.6599 34.02Z" fill="white"/>
<path d="M93.26 52.6801C92.56 52.6801 91.88 52.5201 91.26 52.2001C91.12 52.1201 91.06 51.9401 91.16 51.7801C91.24 51.6401 91.4 51.6001 91.54 51.6601C94.1 53.0201 97.08 50.6001 97.12 50.5801C97.24 50.4601 97.44 50.4801 97.54 50.6001C97.66 50.7201 97.64 50.9201 97.52 51.0201L97.5 51.0401C97.38 51.1201 95.46 52.6801 93.26 52.6801Z" fill="black"/>
<path d="M105.88 51.9C104.82 51.9 103.08 51.56 101.68 49.64C101.58 49.5 101.62 49.32 101.74 49.22C101.88 49.12 102.06 49.16 102.16 49.28C104.06 51.9 106.56 51.24 106.68 51.2C106.84 51.16 107 51.24 107.04 51.4C107.08 51.56 107 51.72 106.84 51.78C106.54 51.88 106.2 51.92 105.88 51.9Z" fill="black"/>
<path d="M58.1 108.9C52.82 104.46 45.6 96.1801 44.36 91.2001C43.12 86.2202 46.32 84.4802 46.32 84.4802L44.64 80.9802L55.32 72.6602L56.94 74.7202C56.94 74.7202 62 73.1802 64.46 77.2202C66.92 81.2602 69.6 86.7602 71.36 88.9001C77.9 96.8801 78.1 106.88 74.1 112.68C70.1 118.48 60.82 111.18 58.1 108.9Z" fill="#FFAD00"/>
<path d="M69.9 115.18C65.76 115.18 60.68 111.44 57.92 109.12C53.14 105.08 45.42 96.6202 44.08 91.2802C43 86.9602 45.2 84.9202 45.94 84.3802L44.38 81.1202C44.32 81.0002 44.36 80.8402 44.46 80.7602L55.14 72.4402C55.28 72.3402 55.46 72.3602 55.56 72.5002L57.06 74.4002C58.06 74.1602 62.44 73.3602 64.72 77.1002C65.68 78.6802 66.66 80.4602 67.62 82.1802C69.12 84.9002 70.54 87.4602 71.6 88.7602C78.52 97.2002 78.24 107.28 74.36 112.9C73.54 114.14 72.22 114.98 70.74 115.16C70.46 115.16 70.18 115.18 69.9 115.18ZM45.02 81.0602L46.6 84.3402C46.68 84.4802 46.62 84.6602 46.48 84.7402C46.36 84.8002 43.5 86.4602 44.66 91.1402C45.92 96.1402 53.4 104.54 58.32 108.68C61.02 110.96 65.96 114.6 69.9 114.6C70.16 114.6 70.42 114.58 70.68 114.54C71.98 114.38 73.16 113.64 73.88 112.54C77.62 107.12 77.88 97.3402 71.14 89.1202C70.04 87.7802 68.6 85.2002 67.1 82.4402C66.14 80.7202 65.18 78.9402 64.22 77.3802C61.9 73.5802 57.24 74.9402 57.04 75.0002C56.92 75.0402 56.8 75.0002 56.72 74.9002L55.28 73.0802L45.02 81.0602Z" fill="#1D1D1B"/>
<path d="M46.66 84.5602C46.66 84.5602 55.12 82.9002 56.78 74.9801L55.24 72.9001L45.02 81.0402L46.66 84.5602Z" fill="#E89D00"/>
<path d="M71.6 99.5002C72.2296 99.5002 72.74 98.9898 72.74 98.3602C72.74 97.7306 72.2296 97.2202 71.6 97.2202C70.9704 97.2202 70.46 97.7306 70.46 98.3602C70.46 98.9898 70.9704 99.5002 71.6 99.5002Z" fill="#FFC140"/>
<path d="M81.4 82.9001C82.0296 82.9001 82.54 82.3897 82.54 81.7601C82.54 81.1305 82.0296 80.6201 81.4 80.6201C80.7704 80.6201 80.26 81.1305 80.26 81.7601C80.26 82.3897 80.7704 82.9001 81.4 82.9001Z" fill="#FFC140"/>
<path d="M102.6 94.1C103.23 94.1 103.74 93.5897 103.74 92.9601C103.74 92.3305 103.23 91.8201 102.6 91.8201C101.97 91.8201 101.46 92.3305 101.46 92.9601C101.46 93.5897 101.97 94.1 102.6 94.1Z" fill="#FFC140"/>
<path d="M118.6 82.9001C119.23 82.9001 119.74 82.3897 119.74 81.7601C119.74 81.1305 119.23 80.6201 118.6 80.6201C117.97 80.6201 117.46 81.1305 117.46 81.7601C117.46 82.3897 117.97 82.9001 118.6 82.9001Z" fill="#FFC140"/>
<path d="M118.6 108.3C119.23 108.3 119.74 107.79 119.74 107.16C119.74 106.53 119.23 106.02 118.6 106.02C117.97 106.02 117.46 106.53 117.46 107.16C117.46 107.79 117.97 108.3 118.6 108.3Z" fill="#FFC140"/>
<path d="M92.1999 114.5C92.8295 114.5 93.3399 113.99 93.3399 113.36C93.3399 112.73 92.8295 112.22 92.1999 112.22C91.5703 112.22 91.0599 112.73 91.0599 113.36C91.0599 113.99 91.5703 114.5 92.1999 114.5Z" fill="#FFC140"/>
<path d="M90.1999 97.9001C90.8295 97.9001 91.3399 97.3897 91.3399 96.7601C91.3399 96.1305 90.8295 95.6201 90.1999 95.6201C89.5703 95.6201 89.0599 96.1305 89.0599 96.7601C89.0599 97.3897 89.5703 97.9001 90.1999 97.9001Z" fill="#FFC140"/>
<path d="M117 97.5C117.63 97.5 118.14 96.9896 118.14 96.36C118.14 95.7304 117.63 95.22 117 95.22C116.37 95.22 115.86 95.7304 115.86 96.36C115.86 96.9896 116.37 97.5 117 97.5Z" fill="#FFC140"/>
<path d="M60 102.5C60.6296 102.5 61.14 101.99 61.14 101.36C61.14 100.731 60.6296 100.22 60 100.22C59.3704 100.22 58.86 100.731 58.86 101.36C58.86 101.99 59.3704 102.5 60 102.5Z" fill="#FFC140"/>
<path d="M60.76 86.2001C61.3896 86.2001 61.9 85.6897 61.9 85.0602C61.9 84.4306 61.3896 83.9202 60.76 83.9202C60.1304 83.9202 59.62 84.4306 59.62 85.0602C59.62 85.6897 60.1304 86.2001 60.76 86.2001Z" fill="#FFC140"/>
<path d="M27.8199 68.6001C27.8199 68.6001 27.3799 79.8201 44.1999 79.5601C44.1999 79.5601 53.2999 79.0201 55.8999 73.7801L55.5199 72.7201C55.5199 72.7201 60.0799 67.0001 57.5799 63.4001C57.5799 63.4001 52.8399 63.4801 49.7799 70.0601C49.7799 70.0601 44.5599 63.6401 36.7999 66.4801C36.7999 66.4801 32.9599 65.7401 32.3199 67.8801C32.3199 67.9001 30.1599 66.5601 27.8199 68.6001Z" fill="#FFCDB2"/>
<path d="M29.3 67.7C30.28 67.32 31.4 67.4 32.32 67.9C32.52 67.24 33.02 66.86 33.62 66.64C34.96 66.14 36.8 66.5 36.8 66.5C44.56 63.66 49.78 70.08 49.78 70.08C51.68 65.98 54.22 64.4 55.88 63.8C56.42 63.58 56.98 63.46 57.56 63.42C60.06 67.02 55.5 72.74 55.5 72.74L55.88 73.8C54.76 76.08 52.4 77.46 50.1 78.3C48.2 78.98 46.2 79.42 44.18 79.58C27.36 79.86 27.8 68.62 27.8 68.62C28.26 68.22 28.76 67.92 29.3 67.7ZM29.1 67.14C28.48 67.38 27.92 67.72 27.42 68.16C27.3 68.26 27.22 68.42 27.22 68.58C27.26 71.28 28.34 73.88 30.24 75.8C33.18 78.8 37.86 80.26 44.18 80.16H44.2C46.28 80 48.34 79.56 50.3 78.84C53.32 77.74 55.38 76.12 56.42 74.04C56.5 73.9 56.5 73.72 56.44 73.56L56.18 72.82C57.1 71.58 60.4799 66.54 58.06 63.04C57.94 62.88 57.76 62.78 57.56 62.78C56.92 62.82 56.28 62.96 55.68 63.2C53.94 63.84 51.52 65.36 49.62 69C48.68 68.08 47.64 67.3 46.5 66.66C43.52 64.98 39.96 64.68 36.76 65.84C36.24 65.76 34.68 65.58 33.42 66.04C32.86 66.22 32.38 66.6 32.04 67.08C31.08 66.78 30.04 66.8 29.1 67.14Z" fill="black"/>
<path d="M50.06 74.1001C49.88 74.1401 49.72 74.0601 49.66 73.9001C49.64 73.8601 49.4 73.1201 48.38 72.6601C47.26 72.1601 45.08 71.9801 40.96 73.8601C40.86 73.9001 40.74 73.9001 40.64 73.8201C40.6 73.7801 35.92 70.0601 32.18 68.1601C32.04 68.0801 31.98 67.9001 32.06 67.7601C32.14 67.6201 32.3 67.5601 32.46 67.6401C35.88 69.3801 40.04 72.6001 40.88 73.2401C44.28 71.7201 46.9 71.3401 48.66 72.1401C49.92 72.7201 50.24 73.7001 50.26 73.7401C50.3 73.8801 50.22 74.0601 50.06 74.1001Z" fill="black"/>
<path d="M44.38 70.9402C44.26 70.9802 44.14 70.9402 44.06 70.8602C44.04 70.8402 41.64 68.2202 36.64 66.5802C36.48 66.5202 36.4 66.3602 36.44 66.2002C36.48 66.0402 36.66 65.9602 36.82 66.0002C41.98 67.7002 44.4 70.3402 44.5 70.4602C44.62 70.5802 44.6 70.7802 44.48 70.8802C44.46 70.9202 44.42 70.9402 44.38 70.9402Z" fill="black"/>
<path d="M43.38 78.3201L43.32 78.3401C36.94 79.4601 31.64 74.8201 31.42 74.6201C31.26 74.4801 31.24 74.2201 31.38 74.0601C31.52 73.9001 31.78 73.8801 31.94 74.0201C32 74.0601 37.18 78.6001 43.16 77.5401C43.38 77.5001 43.58 77.6201 43.64 77.8401C43.68 78.0601 43.56 78.2801 43.38 78.3201Z" fill="white"/>
<path d="M146.3 106.9C151.58 102.46 157.5 92.5801 158.74 87.6001C159.98 82.6201 156.78 80.8801 156.78 80.8801L158.46 77.3801L147.8 69.0601L146.18 71.1201C146.18 71.1201 141.12 69.5801 138.66 73.6201C136.2 77.6601 133.52 83.1601 131.76 85.3001C125.2 93.2801 127.5 107.88 131.5 113.68C135.5 119.48 143.58 109.18 146.3 106.9Z" fill="#FFAD00"/>
<path d="M134.54 115.74C134.42 115.74 134.3 115.74 134.18 115.72C133.02 115.62 132.02 114.98 131.24 113.86C129.1 110.74 127.6 105.56 127.36 100.34C127.06 94.1401 128.54 88.7401 131.5 85.1401C132.56 83.8401 133.98 81.2801 135.48 78.5601C136.44 76.8401 137.42 75.0601 138.38 73.4801C140.66 69.7401 145.04 70.5601 146.04 70.7801L147.54 68.8801C147.64 68.7601 147.82 68.7201 147.96 68.8201L158.62 77.1401C158.74 77.2201 158.76 77.3801 158.7 77.5001L157.14 80.7601C157.9 81.3201 160.1 83.3601 159 87.6601C157.72 92.7401 151.68 102.7 146.46 107.1L146.26 106.86L146.46 107.1C145.98 107.5 145.34 108.16 144.58 108.92C141.92 111.68 137.9 115.74 134.54 115.74ZM143.94 71.1201C142.36 71.1201 140.24 71.6001 138.92 73.7801C137.96 75.3401 136.98 77.1201 136.04 78.8401C134.52 81.5801 133.1 84.1601 132 85.5201C129.12 89.0201 127.7 94.2801 127.98 100.32C128.22 105.36 129.7 110.56 131.76 113.54C132.44 114.54 133.26 115.06 134.26 115.14C134.36 115.14 134.46 115.16 134.56 115.16C137.66 115.16 141.58 111.2 144.2 108.54C144.96 107.76 145.64 107.1 146.12 106.68C151.28 102.34 157.22 92.5401 158.48 87.5401C159.66 82.8801 156.78 81.2201 156.66 81.1401C156.52 81.0601 156.46 80.8801 156.54 80.7401L158.12 77.4601L147.88 69.4801L146.44 71.3201C146.36 71.4201 146.24 71.4601 146.12 71.4201C145.38 71.2201 144.66 71.1201 143.94 71.1201Z" fill="#1D1D1B"/>
<path d="M156.44 80.96C156.44 80.96 147.98 79.3 146.32 71.38L147.86 69.3L158.1 77.4401L156.44 80.96Z" fill="#E89D00"/>
<path d="M131.5 95.9001C132.13 95.9001 132.64 95.3897 132.64 94.7601C132.64 94.1305 132.13 93.6201 131.5 93.6201C130.87 93.6201 130.36 94.1305 130.36 94.7601C130.36 95.3897 130.87 95.9001 131.5 95.9001Z" fill="#FFC140"/>
<path d="M143.1 98.9001C143.73 98.9001 144.24 98.3897 144.24 97.7601C144.24 97.1305 143.73 96.6201 143.1 96.6201C142.47 96.6201 141.96 97.1305 141.96 97.7601C141.96 98.3897 142.47 98.9001 143.1 98.9001Z" fill="#FFC140"/>
<path d="M142.34 82.6001C142.97 82.6001 143.48 82.0897 143.48 81.4601C143.48 80.8305 142.97 80.3201 142.34 80.3201C141.71 80.3201 141.2 80.8305 141.2 81.4601C141.2 82.0897 141.71 82.6001 142.34 82.6001Z" fill="#FFC140"/>
<path d="M176.14 64.46C176.14 64.46 176.58 75.68 159.76 75.42C159.76 75.42 150.66 74.88 148.06 69.64L148.44 68.6C148.44 68.6 143.88 62.88 146.38 59.28C146.38 59.28 151.12 59.36 154.18 65.94C154.18 65.94 159.38 59.52 167.16 62.36C167.16 62.36 171 61.62 171.64 63.76C171.64 63.76 173.8 62.4 176.14 64.46Z" fill="#FFCDB2"/>
<path d="M174.66 63.5602C175.2 63.7602 175.7 64.0802 176.14 64.4602C176.14 64.4602 176.58 75.6802 159.76 75.4202C157.74 75.2602 155.74 74.8202 153.84 74.1402C151.54 73.3002 149.18 71.9202 148.06 69.6402L148.44 68.6002C148.44 68.6002 143.88 62.8802 146.38 59.2802C146.96 59.3202 147.52 59.4402 148.06 59.6602C149.72 60.2602 152.26 61.8402 154.16 65.9402C154.16 65.9402 159.36 59.5202 167.14 62.3602C167.14 62.3602 168.98 62.0002 170.32 62.5002C170.92 62.7202 171.42 63.1002 171.62 63.7602C172.56 63.2602 173.66 63.1802 174.66 63.5602ZM174.86 62.9802C173.92 62.6202 172.88 62.6202 171.92 62.9602C171.58 62.4802 171.1 62.1002 170.54 61.9202C169.28 61.4602 167.72 61.6402 167.2 61.7202C163.98 60.5602 160.42 60.8402 157.46 62.5402C156.32 63.1802 155.26 63.9602 154.32 64.8802C152.42 61.2402 150 59.7202 148.26 59.0802C147.66 58.8402 147.02 58.7002 146.38 58.6602C146.18 58.6602 146 58.7602 145.88 58.9202C143.44 62.4202 146.84 67.4602 147.76 68.7002L147.48 69.4402C147.42 69.6002 147.44 69.7602 147.5 69.9202C148.54 72.0002 150.58 73.6202 153.6 74.7202C155.56 75.4202 157.62 75.8602 159.7 76.0202H159.72C166.04 76.1202 170.72 74.6602 173.66 71.6402C175.56 69.7202 176.66 67.1402 176.72 64.4402C176.72 64.2802 176.64 64.1202 176.52 64.0202C176.04 63.5802 175.48 63.2202 174.86 62.9802Z" fill="black"/>
<path d="M153.9 69.9402C154.08 69.9802 154.24 69.9002 154.3 69.7402C154.32 69.7002 154.56 68.9602 155.58 68.5002C156.7 68.0002 158.88 67.8202 163 69.7002C163.1 69.7402 163.22 69.7402 163.32 69.6602C163.36 69.6202 168.04 65.9002 171.78 64.0002C171.92 63.9202 171.98 63.7402 171.9 63.6002C171.82 63.4602 171.66 63.4002 171.5 63.4802C168.08 65.2202 163.9 68.4402 163.08 69.0802C159.68 67.5602 157.06 67.1802 155.3 67.9802C154.04 68.5602 153.72 69.5402 153.7 69.5802C153.66 69.7402 153.74 69.9002 153.9 69.9402Z" fill="black"/>
<path d="M159.58 66.8001C159.7 66.8401 159.82 66.8001 159.9 66.7201C159.92 66.7001 162.34 64.0801 167.32 62.4401C167.48 62.4001 167.58 62.2401 167.54 62.0801C167.5 61.9201 167.34 61.8201 167.18 61.8601C167.16 61.8601 167.14 61.8601 167.14 61.8801C161.98 63.5801 159.56 66.2201 159.46 66.3401C159.34 66.4601 159.36 66.6601 159.48 66.7601C159.5 66.7601 159.54 66.7801 159.58 66.8001Z" fill="black"/>
<path d="M160.58 74.18C160.6 74.18 160.62 74.2 160.64 74.2C167.02 75.32 172.32 70.68 172.54 70.48C172.7 70.34 172.72 70.08 172.58 69.92C172.44 69.76 172.18 69.74 172.02 69.88C171.96 69.92 166.78 74.46 160.8 73.4C160.58 73.36 160.38 73.5 160.34 73.72C160.3 73.92 160.4 74.12 160.58 74.18Z" fill="white"/>
<path d="M99.1 67.0001H99.06C98.9 66.9801 98.78 66.8401 98.8 66.6601C98.88 65.9201 98.76 65.4001 98.4 65.1401C97.68 64.6201 96.14 65.1201 95.62 65.3601C95.46 65.4201 95.3 65.3601 95.22 65.2001C95.14 65.0401 95.22 64.8801 95.38 64.8001C95.48 64.7601 97.62 63.8001 98.76 64.6401C99.3 65.0401 99.52 65.7201 99.4 66.7001C99.38 66.8801 99.26 67.0001 99.1 67.0001Z" fill="black"/>
<path d="M94.3 57.5001C94.7418 57.5001 95.1 57.142 95.1 56.7001C95.1 56.2583 94.7418 55.9001 94.3 55.9001C93.8582 55.9001 93.5 56.2583 93.5 56.7001C93.5 57.142 93.8582 57.5001 94.3 57.5001Z" fill="black"/>
<path d="M107 57.6C107.442 57.6 107.8 57.2418 107.8 56.8C107.8 56.3582 107.442 56 107 56C106.558 56 106.2 56.3582 106.2 56.8C106.2 57.2418 106.558 57.6 107 57.6Z" fill="black"/>
<path d="M55.54 48.1C55.5 48.1 55.44 48.1 55.4 48.08C50.22 46.08 45.58 42.6 41.58 37.74C38.4 33.86 35.6 29.1 33.3 23.56C30.92 17.82 29.2 11.8 28.2 5.66C28.18 5.44 28.32 5.24 28.54 5.2C28.76 5.16 28.96 5.32 29 5.54C29.02 5.62 30.18 13.98 34.04 23.28C37.6 31.82 44.24 42.94 55.68 47.34C55.88 47.42 56 47.64 55.92 47.86C55.86 48 55.7 48.12 55.54 48.1Z" fill="black"/>
<path d="M45.38 47.5799H45.34C40.32 47.0399 35.46 43.9999 31.28 38.7799C29.38 36.3799 27.76 33.7799 26.46 30.9999C26.38 30.7999 26.46 30.5599 26.66 30.4799C26.86 30.3999 27.1 30.4799 27.18 30.6799C27.24 30.8399 33.78 45.5399 45.42 46.7799C45.64 46.7999 45.82 46.9799 45.8 47.1999C45.78 47.4199 45.6 47.5999 45.38 47.5799Z" fill="black"/>
<path d="M7.4 67.9999C7.18 67.9999 7 67.8199 7 67.5999C7 67.5199 7.02 67.4399 7.08 67.3599C10.04 63.2999 15.32 61.6599 22.38 62.5999C25.74 63.0799 29.02 63.9599 32.16 65.2199C32.36 65.2999 32.46 65.5399 32.36 65.7399C32.28 65.9399 32.04 66.0399 31.84 65.9399C31.66 65.8599 14.46 58.5799 7.72 67.7999C7.64 67.9399 7.52 67.9999 7.4 67.9999Z" fill="black"/>
<path d="M35.6 60.8C35.48 60.8 35.38 60.76 35.3 60.66C35.24 60.6 30.28 55.24 19.84 56.4C19.62 56.42 19.42 56.26 19.4 56.04C19.38 55.82 19.54 55.62 19.76 55.6C30.64 54.4 35.7 59.9 35.9 60.14C36.04 60.3 36.04 60.56 35.88 60.7C35.8 60.76 35.7 60.8 35.6 60.8Z" fill="black"/>
<path d="M136.9 110.3C136.46 110.3 136.1 109.94 136.1 109.5C136.1 109.22 136.24 108.98 136.46 108.82C155.72 96.4799 152.96 86.4199 152.92 86.3199C152.8 85.8999 153.04 85.4599 153.46 85.3199C153.88 85.1799 154.32 85.4399 154.46 85.8599C154.5 85.9799 155.32 88.8399 153.54 93.2799C151.22 99.0799 145.76 104.76 137.34 110.16C137.2 110.26 137.06 110.3 136.9 110.3Z" fill="white"/>
<path d="M188 62.9999C187.9 62.9999 187.78 62.9599 187.7 62.8799C184.56 59.5799 180.4 58.1799 175.34 58.7199C173 58.9799 170.72 59.5999 168.58 60.5599C168.38 60.6799 168.14 60.5999 168.04 60.4199C167.92 60.2199 168 59.9799 168.18 59.8799C168.2 59.8799 168.22 59.8599 168.24 59.8599C170.46 58.8599 172.82 58.1999 175.24 57.9399C180.5 57.3599 185.02 58.8999 188.3 62.3399C188.46 62.4999 188.44 62.7599 188.28 62.8999C188.18 62.9599 188.1 62.9999 188 62.9999Z" fill="black"/>
<path d="M158.6 58.6C158.38 58.6 158.2 58.42 158.2 58.2C158.2 58.12 158.22 58.04 158.28 57.98C158.34 57.88 159.96 55.58 163.26 53.66C166.3 51.88 171.36 50.14 178.3 51.82C178.52 51.88 178.64 52.08 178.6 52.3C178.54 52.52 178.34 52.64 178.12 52.6C171.44 50.98 166.6 52.66 163.7 54.34C160.56 56.18 158.96 58.42 158.94 58.44C158.86 58.54 158.74 58.6 158.6 58.6Z" fill="black"/>
</svg>
